<svg width="218" height="166" viewBox="0 0 218 166" xmlns="http://www.w3.org/2000/svg" xmlns:xlink="http://www.w3.org/1999/xlink"><svg width="54" height="41.5" viewBox="-2 -2 54 41.5" y="124"><path fill="#1c1b25" d="M8.7.1h3.8l8.7 37.4-1.9-.1-8.2-35.2H10L1.8 37.3H0L8.7.1zm-2.8 25h9.3L18 37.3h-1.8l-2.4-10.4-6.5-.1-2.4 10.4-1.9.1 2.9-12.2zM10.6 5L15 23.9H6.2C6.2 24 10.6 5 10.6 5zm2.1 17.1L10.5 13l-2.1 9.1h4.3zM15.6 0l8.9 35.5h1L34.4.2l1.9-.2-9.4 37.4h-3.7L13.9.2l1.7-.2zm3.2.4l6.2 25L31.4.3l1.8-.1L25 32.6 16.9.2l1.9.2zM37.5.1h3.8L50 37.5l-1.9-.1L40 2.2h-1.1l-8.2 35.1h-1.8L37.5.1zm-2.8 25H44l2.9 12.2h-1.8l-2.4-10.4-6.5-.1-2.4 10.3-1.9.1 2.8-12.1zM39.4 5l4.4 18.9-8.8.1 4.4-19zm2.1 17.1L39.4 13l-2.1 9.1h4.2z"/></svg><svg width="124" height="124" viewBox="-2 -2 124 124"><path fill="#fff" d="M60 0L0 60l60 60 60-60L60 0zM2.8 60L60 2.8 117.2 60 60 117.2 2.8 60zm45.7-8.5h2v16.2c-.6.3-1.3.5-2 .7V51.5zm-2 0h1v17h-2v-17h1zm9.3-4c-.1 0-.1 0 0 0H41c-6.6 0-12 5.4-12 12v1.1c0 6.6 5.4 12 12 12h7c.2 0 .3 0 .5-.1.7-.1 1.3-.2 1.9-.4h.1c.2-.1.3-.1.5-.2s.3-.1.5-.2c.1 0 .2-.1.3-.1 1.1-.5 2.2-1.2 3.1-2 .2-.2.4-.3.5-.5l.5-.5c.3-.3.5-.6.7-.9.1-.2.2-.3.3-.5.1-.2.2-.4.3-.5.3-.5.6-1.1.8-1.6.1-.2.1-.3.2-.5s.1-.3.2-.5c.1-.3.2-.7.3-1.1.1-.3.1-.6.1-.9 0-.2 0-.3.1-.5v-.5h-7.4v-2h9.4v2.6c0 .2 0 .3-.1.5-.1.7-.2 1.4-.4 2 0 .2-.1.3-.1.5-.1.2-.1.3-.2.5 0 .1-.1.2-.1.4-.1.2-.2.4-.3.7l-.3.6c-.3.7-.7 1.3-1.2 1.9-.1.1-.2.3-.3.4-.1.1-.2.3-.3.4l-.1.1c-.6.7-1.3 1.4-2.1 2-.2.2-.4.3-.7.5-.3.2-.5.3-.8.5-.8.4-1.6.8-2.4 1.1-.2.1-.3.1-.5.2s-.3.1-.5.1c-.6.2-1.3.3-2 .4-.2 0-.3 0-.5.1h-6.6C33.5 74.5 27 68 27 60.1v-.3c0-7.9 6.5-14.4 14.4-14.4h14.3v2.1h.1zm-13.3 4h2v17h-2v-17zm8-1h-9.4c-5 0-9.1 4.1-9.1 9.1v.9c0 5 4.1 9.1 9.1 9.1H48c.2 0 .3 0 .5-.1.5-.1.9-.2 1.4-.4.2-.1.4-.1.6-.2.2-.1.3-.2.5-.2h.1c.2-.1.3-.2.4-.2 1.3-.8 2.5-1.9 3.3-3.3.1-.2.2-.3.3-.5.1-.2.2-.3.2-.5h-3.9v-2h6.4c-.1.7-.2 1.4-.5 2-.1.2-.1.3-.2.5s-.1.3-.2.5c-.1.1-.1.2-.2.4l-.3.6c-.1.2-.2.4-.3.5-.5.7-1 1.4-1.7 2-.2.2-.4.3-.6.5-.2.2-.4.3-.7.5-.6.4-1.2.7-1.8 1-.2.1-.3.1-.5.2s-.3.1-.5.2c-.6.2-1.3.4-2 .5-.2 0-.3 0-.5.1H41c-6 0-11-4.9-11-11v-1.1c0-6 4.9-11 11-11h14.8v2h-5.3zm-8 27h-1C31.9 77.5 24 69.6 24 60s7.9-17.5 17.5-17.5h14.3v2H41.4c-8.5 0-15.4 6.9-15.4 15.4v.3c0 8.5 6.9 15.4 15.4 15.4H48c.2 0 .3 0 .5-.1.7-.1 1.3-.2 2-.4.2 0 .3-.1.5-.1s.3-.1.5-.2.4-.1.5-.2c1.3-.5 2.6-1.2 3.7-2 .2-.2.5-.3.7-.5.2-.2.4-.3.6-.5l1.2-1.2c.1-.1.2-.3.4-.4.1-.1.2-.3.3-.4.1-.2.2-.3.4-.5.1-.2.2-.3.3-.5.2-.3.3-.5.5-.8.1-.2.2-.3.3-.5l.3-.6c.2-.5.5-1.1.6-1.6.1-.2.1-.3.2-.5 0-.2.1-.3.1-.5.1-.4.2-.7.2-1.1.1-.3.1-.6.1-.9 0-.2 0-.3.1-.5v-3.1c0-.2 0-.3-.1-.5H51.6v-2h11.8c.2.7.3 1.3.4 2v1c0 .3.1.7.1 1 0 .3 0 .7-.1 1v1c-.1.7-.2 1.3-.4 2 0 .2-.1.3-.1.5s-.1.3-.1.5c0 .1-.1.2-.1.4-.1.2-.2.4-.2.7-.1.2-.1.4-.2.6-.3.6-.6 1.3-.9 1.9-.1.2-.2.3-.3.5-.1.2-.2.3-.3.5-.4.6-.7 1.1-1.2 1.6-.1.1-.2.3-.3.4-.1.1-.2.2-.3.4l-.1.1-.5.5c-.8.7-1.6 1.4-2.4 2-.3.2-.5.3-.8.5-.3.2-.6.3-.9.5-1 .5-2 .9-3.1 1.3-.2 0-.3.1-.5.1h-.6c-.7.2-1.3.3-2 .4h-1c-.3 0-.7.1-1 .1h-4zm30-36V41c0-6.6-5.4-12-12-12h-1.1c-6.6 0-12 5.4-12 12v.5h-2v-.1C45.5 33.5 52 27 59.9 27h.3c7.9 0 14.4 6.5 14.4 14.4v.1h-2.1zm-3-.2V41c0-5-4.1-9.1-9.1-9.1h-.9c-5 0-9.1 4.1-9.1 9.1v.4h-2V41c0-6 4.9-11 11-11h1.1c5.9 0 10.8 4.8 10.9 10.7v.9c-.7.1-1.3.2-2 .3v-.6zm-25 .2h-2C42.5 31.9 50.4 24 60 24s17.5 7.9 17.5 17.5h-2v-.1c0-8.5-6.9-15.4-15.4-15.4h-.3c-8.5 0-15.4 6.9-15.4 15.4v.1zm34 9H72c-.2 0-.3 0-.5.1-.5.1-.9.2-1.4.4-.2.1-.4.1-.6.2-.2.1-.3.2-.5.2h-.1c-.2.1-.3.2-.4.2-1.3.8-2.5 1.9-3.3 3.3H63c.1-.1.1-.2.2-.4l.3-.6c.1-.2.2-.4.3-.5.5-.7 1-1.4 1.7-2 .2-.2.4-.3.6-.5.2-.2.4-.3.7-.5.6-.4 1.2-.7 1.8-1 .2-.1.3-.1.5-.2s.3-.1.5-.2c.6-.2 1.3-.4 2-.5.2 0 .3 0 .5-.1H79c6 0 11 4.9 11 11v1.1c0 6-4.9 11-11 11h-.5v-2h.4c5 0 9.1-4.1 9.1-9.1v-.9c0-5-4.1-9.1-9.1-9.1h-.4zm-16.8 1c.1-.1.2-.3.3-.4.1-.1.2-.3.3-.4l.1-.1c.6-.7 1.3-1.4 2.1-2 .2-.2.4-.3.7-.5.3-.2.5-.3.8-.5.8-.4 1.6-.8 2.4-1.1.2-.1.3-.1.5-.2s.3-.1.5-.1c.6-.2 1.3-.3 2-.4.2 0 .3 0 .5-.1h6.7C86.5 45.5 93 52 93 59.9v.3c0 7.9-6.5 14.4-14.4 14.4h-.1v-2h.5c6.6 0 12-5.4 12-12v-1.1c0-6.6-5.4-12-12-12h-7c-.2 0-.3 0-.5.1-.7.1-1.3.2-1.9.4h-.1c-.2.1-.3.1-.5.2s-.3.1-.5.2c-.1 0-.2.1-.3.1-1.1.5-2.2 1.2-3.1 2-.2.2-.4.3-.5.5l-.5.5c-.3.3-.5.6-.7.9-.1.2-.2.3-.3.5-.1.2-.2.4-.3.5-.3.5-.6 1.1-.8 1.6h-2c0-.1.1-.2.1-.4.1-.2.2-.4.3-.7l.3-.6c.2-.6.6-1.2 1-1.8zm6.8 16.8v2.2c-.6-.3-1.2-.6-1.8-1-.2-.2-.5-.3-.7-.5-.2-.2-.4-.3-.6-.5-.6-.6-1.2-1.3-1.7-2 .2-.5.4-1 .5-1.5 0-.2.1-.3.1-.5s.1-.3.1-.5c0-.1.1-.2.1-.3 0 .1.1.2.1.3.1.2.2.3.2.5.1.2.2.3.3.5.9 1.3 2.1 2.5 3.4 3.3zM96 60c0 9.6-7.9 17.5-17.5 17.5v-2h.1c8.5 0 15.4-6.9 15.4-15.4v-.3c0-8.5-6.9-15.4-15.4-15.4H72c-.2 0-.3 0-.5.1-.7.1-1.3.2-2 .4-.2 0-.3.1-.5.1s-.3.1-.5.2-.4.1-.5.2c-1.3.5-2.6 1.2-3.7 2-.2.2-.5.3-.7.5-.2.2-.4.3-.6.5l-1.2 1.2c-.1.1-.2.3-.4.4-.1.1-.2.3-.3.4-.1.2-.2.3-.4.5-.1.2-.2.3-.3.5-.2.3-.3.5-.5.8-.1.2-.2.3-.3.5l-.3.6c-.2.5-.5 1.1-.6 1.6h-2c0-.1.1-.2.1-.3.1-.2.2-.4.2-.7.1-.2.1-.4.2-.6 0-.1.1-.1.1-.2.2-.5.5-1 .7-1.5 0-.1.1-.1.1-.2.1-.2.2-.3.3-.5.1-.2.2-.3.3-.5l.9-1.2c.1-.1.2-.2.3-.4.1-.1.2-.3.3-.4.1-.1.2-.2.3-.4l.1-.1.5-.5.1-.1c.4-.3.7-.7 1.1-1l1.2-.9h.1c.3-.2.5-.3.8-.5.1-.1.2-.1.3-.2.2-.1.3-.2.5-.3h.1c.5-.3 1-.5 1.5-.7.4-.2.8-.3 1.2-.4.1 0 .2-.1.3-.1.2 0 .3-.1.5-.1h.1c.1 0 .3-.1.4-.1.3-.1.6-.1.9-.2.4-.1.7-.1 1.1-.2h7.2C88.1 42.5 96 50.4 96 60zm-20.5-8.5h2v27C77.5 88.1 69.6 96 60 96s-17.5-7.9-17.5-17.5h2v.1c0 8.5 6.9 15.4 15.4 15.4h.3c8.5 0 15.4-6.9 15.4-15.4V51.5zm-6 .8c.6-.3 1.3-.5 2-.7V79c0 6-4.9 11-11 11h-1.1c-5.9 0-10.8-4.8-11-10.7v-.9c.7-.1 1.3-.2 2-.3v.9c0 5 4.1 9.1 9.1 9.1h.9c5 0 9.1-4.1 9.1-9.1V52.3zm-7 17.2h-.2s0-.1.1-.1c.1-.1.2-.3.2-.4.1-.2.2-.3.3-.5.2-.3.3-.6.4-.9.2.3.5.6.7.9l.5.5c.2.2.4.3.6.5.9.8 2 1.5 3.1 2 .1 0 .2.1.3.1v2c-.8-.3-1.6-.7-2.4-1.1-.3-.2-.5-.3-.8-.5-.2-.2-.4-.3-.7-.5-.7-.6-1.5-1.3-2.1-2zm-15 9v.5c0 6.6 5.4 12 12 12h1.1c6.6 0 12-5.4 12-12V51.5h2v27.1C74.5 86.5 68 93 60.1 93h-.3c-7.9 0-14.4-6.5-14.4-14.4v-.1h2.1zm14.4-8.2l1.2 1.2c.2.2.4.3.6.5.2.2.4.3.7.5 1.1.8 2.4 1.5 3.7 2 .2.1.4.1.5.2v2.1c-.5-.2-1.1-.3-1.6-.6-.5-.2-1-.4-1.5-.7-.3-.2-.6-.3-.9-.5h-.1c-.3-.2-.5-.3-.8-.5-.4-.3-.9-.6-1.3-.9-.4-.3-.8-.7-1.2-1l-.5-.5-.1-.1c.1-.1.2-.2.3-.4.4-.5.7-.9 1-1.3z"/></svg><svg width="94" height="94" viewBox="-2 -2 94 94" x="124"><path fill="#fff" d="M45 0L0 45l45 45 45-45L45 0zM2.1 45L45 2.1 87.9 45 45 87.9 2.1 45zm34.3-6.4h1.5v12.1c-.5.2-1 .4-1.5.5V38.6zm-1.5 0h.8v12.7h-1.5V38.6h.7zm6.9-3H30.5c-4.9 0-9 4-9 9v.8c0 4.9 4 9 9 9h5.8l1.5-.3c.1 0 .3-.1.4-.1.1 0 .3-.1.4-.1.1 0 .2-.1.2-.1.9-.4 1.6-.9 2.3-1.5.1-.1.3-.2.4-.4.1-.1.2-.2.3-.4.2-.2.4-.4.5-.7l.3-.3c.1-.1.2-.3.2-.4l.6-1.2c0-.1.1-.2.1-.4 0-.1.1-.2.1-.4.1-.3.1-.5.2-.8 0-.2.1-.4.1-.7v-.8h-5.3v-1.5h7.1v2.2l-.3 1.5c0 .1-.1.3-.1.4 0 .1-.1.2-.1.4 0 .1-.1.2-.1.3-.1.2-.1.3-.2.5-.1.1-.1.3-.2.4-.3.5-.5 1-.9 1.4-.1.1-.2.2-.2.3-.1.1-.2.2-.2.3 0 0 0 .1-.1.1-.5.6-1 1.1-1.6 1.5-.2.1-.3.3-.5.4-.2.1-.4.3-.6.4-.6.3-1.2.6-1.8.8-.1 0-.2.1-.4.1-.1 0-.2.1-.4.1l-1.5.3H31c-5.9 0-10.8-4.8-10.8-10.8v-.2c0-5.9 4.8-10.8 10.8-10.8h10.8v1.7zm-9.9 3h1.5v12.7h-1.5V38.6zm6-.7h-7.3c-3.7 0-6.8 3-6.8 6.8v.7c0 3.7 3 6.8 6.8 6.8h5.3c.1 0 .3 0 .4-.1.4-.1.7-.2 1-.3.2-.1.3-.1.5-.2.1-.1.3-.1.4-.2.1-.1.2-.1.3-.2 1-.6 1.8-1.4 2.4-2.4.1-.1.1-.2.2-.4.1-.1.1-.2.2-.4h-2.7v-1.5h4.8l-.3 1.5c0 .1-.1.3-.1.4 0 .1-.1.3-.2.4 0 .1-.1.2-.1.3-.1.2-.2.3-.2.4-.1.1-.2.3-.2.4-.4.5-.8 1-1.3 1.5l-.4.4c-.2.1-.3.3-.5.4-.4.3-.9.6-1.4.8-.1.1-.2.1-.4.2-.1 0-.2.1-.4.1-.5.2-1 .3-1.5.3h-5.8c-4.5 0-8.2-3.7-8.2-8.2v-.8c0-4.5 3.7-8.2 8.2-8.2h11.3v1.5h-4zm-6 20.2h-.8C23.9 58.1 18 52.2 18 45c0-7.2 5.9-13.1 13.1-13.1h10.8v1.5h-11 .1c-6.3 0-11.5 5.2-11.5 11.5v.2c0 6.3 5.2 11.5 11.5 11.5h5.4l1.5-.3c.1 0 .3-.1.4-.1.1 0 .3-.1.4-.1.1 0 .3-.1.4-.2 1-.4 1.9-.9 2.8-1.5.2-.1.3-.2.5-.4.1-.1.3-.2.4-.4l.9-.9.3-.3c.1-.1.2-.2.2-.3.1-.1.2-.2.3-.4.1-.1.2-.2.3-.4.1-.2.3-.4.4-.6.1-.1.1-.3.2-.4.1-.1.1-.3.2-.4.2-.4.3-.8.5-1.2 0-.1.1-.2.1-.4 0-.1.1-.3.1-.4.1-.3.1-.5.2-.8 0-.2.1-.4.1-.7v-3h-8V42h9.1l.3 1.5v3.1l-.3 1.5c0 .1-.1.3-.1.4 0 .1-.1.3-.1.4 0 .1-.1.2-.1.3-.1.2-.1.3-.2.5-.1.1-.1.3-.2.4-.2.5-.4 1-.7 1.4-.1.1-.1.2-.2.3-.1.1-.1.2-.2.3l-.9 1.2-.3.3c-.1.1-.2.2-.2.3l-.1.1c-.1.1-.2.3-.4.4-.6.6-1.2 1.1-1.8 1.5-.2.1-.4.3-.6.4-.2.1-.4.3-.7.4-.7.4-1.5.7-2.3.9-.1 0-.3.1-.4.1s-.2.1-.4.1l-1.5.3h-4.4zm22.5-27v-.4c0-4.9-4-9-9-9h-.8c-4.9 0-9 4-9 9v.4h-1.5V31c0-5.9 4.8-10.8 10.8-10.8h.2C51 20.2 55.9 25 55.9 31v.1h-1.5zm-2.3-.1v-.2c0-3.7-3-6.8-6.8-6.8h-.7c-3.7 0-6.8 3-6.8 6.8v.3h-1.5v-.4c0-4.5 3.7-8.2 8.2-8.2h.8c4.4 0 8.1 3.6 8.2 8v.7c-.5.1-1 .1-1.5.3V31zm-18.7.1h-1.5C31.9 23.9 37.8 18 45 18c7.2 0 13.1 5.9 13.1 13.1h-1.5V31c0-6.3-5.2-11.5-11.5-11.5h-.2c-6.3 0-11.5 5.2-11.5 11.5v.1zm25.5 6.8h-5c-.1 0-.3 0-.4.1-.4.1-.7.2-1 .3-.2.1-.3.1-.5.2-.1.1-.3.1-.4.2-.1.1-.2.1-.3.2-1 .6-1.8 1.4-2.4 2.4h-1.7c0-.1.1-.2.1-.3.1-.2.2-.3.2-.4.1-.1.2-.3.2-.4.4-.5.8-1 1.3-1.5l.4-.4c.2-.1.3-.3.5-.4.4-.3.9-.6 1.4-.8.1-.1.2-.1.4-.2.1 0 .2-.1.4-.1.5-.2 1-.3 1.5-.3h5.8c4.5 0 8.2 3.7 8.2 8.2v.8c0 4.5-3.7 8.2-8.2 8.2H59v-1.5h.3c3.7 0 6.8-3 6.8-6.8v-.7c0-3.7-3-6.8-6.8-6.8h-.4zm-12.6.7c.1-.1.2-.2.2-.3.1-.1.2-.2.2-.3 0 0 0-.1.1-.1.5-.6 1-1.1 1.6-1.5.2-.1.3-.3.5-.4.2-.1.4-.3.6-.4.6-.3 1.2-.6 1.8-.8.1 0 .2-.1.4-.1.1 0 .2-.1.4-.1l1.5-.3H59c5.9 0 10.8 4.8 10.8 10.8v.2c0 5.9-4.8 10.8-10.8 10.8h-.1v-1.5h.4c4.9 0 9-4 9-9v-.8c0-4.9-4-9-9-9h-5.8l-1.5.3c-.1 0-.3.1-.4.1-.1 0-.3.1-.4.1-.1 0-.2.1-.2.1-.9.4-1.6.9-2.3 1.5-.1.1-.3.2-.4.4-.1.1-.2.2-.3.4-.2.2-.4.4-.5.7l-.3.3c-.1.1-.2.3-.2.4l-.6 1.2h-1.5c0-.1.1-.2.1-.3.1-.2.1-.3.2-.5.1-.1.1-.3.2-.4l.9-1.5zm5.1 12.6V53c-.5-.2-.9-.5-1.4-.8-.2-.1-.3-.2-.5-.4-.1-.1-.3-.2-.4-.4-.5-.4-.9-.9-1.3-1.5.1-.4.3-.7.4-1.1 0-.1.1-.2.1-.4 0-.1.1-.2.1-.4 0-.1 0-.1.1-.2 0 .1.1.1.1.2.1.1.1.3.2.4.1.1.1.3.2.4.5 1 1.4 1.8 2.4 2.4zM72 45c0 7.2-5.9 13.1-13.1 13.1v-1.5h.1c6.3 0 11.5-5.2 11.5-11.5v-.2c0-6.3-5.2-11.5-11.5-11.5h-5.4l-1.5.3c-.1 0-.3.1-.4.1-.1 0-.3.1-.4.1-.1 0-.3.1-.4.2-1 .4-1.9.9-2.8 1.5-.2.1-.3.2-.5.4-.1.1-.3.2-.4.4l-.9.9-.3.3c-.1.1-.2.2-.2.3-.1.1-.2.2-.3.4-.1.1-.2.2-.3.4-.1.2-.3.4-.4.6-.1.1-.1.3-.2.4-.1.1-.1.3-.2.4-.2.4-.3.8-.5 1.2h-1.5c0-.1.1-.2.1-.3.1-.2.1-.3.2-.5.1-.1.1-.3.2-.4 0 0 0-.1.1-.1.2-.4.4-.8.6-1.1 0 0 0-.1.1-.1.1-.1.1-.2.2-.3.1-.1.1-.2.2-.3.2-.3.4-.6.7-.9.1-.1.1-.2.2-.3l.3-.3c.1-.1.2-.2.2-.3l.1-.1c.1-.1.2-.3.4-.4.3-.3.5-.5.8-.7.3-.2.6-.5.9-.7.2-.1.4-.3.6-.4.1 0 .2-.1.2-.1.1-.1.2-.1.4-.2.4-.2.7-.4 1.1-.5l.9-.3c.1 0 .2-.1.2-.1.1 0 .2-.1.4-.1h.1c.1 0 .2-.1.3-.1.2-.1.5-.1.7-.1.3 0 .5-.1.8-.1h5.5C66.1 31.9 72 37.8 72 45zm-15.4-6.4h1.5V59c0 7.1-5.9 13-13.1 13-7.2 0-13.1-5.9-13.1-13.1h1.5v.1c0 6.3 5.2 11.5 11.5 11.5h.2c6.3 0 11.5-5.2 11.5-11.5V38.6zm-4.5.7c.5-.2 1-.4 1.5-.5v20.4c0 4.5-3.7 8.2-8.2 8.2h-.8c-4.5 0-8.1-3.6-8.2-8v-.7c.5-.1 1-.1 1.5-.3v.8c0 3.7 3 6.8 6.8 6.8h.7c3.7 0 6.8-3 6.8-6.8V39.3zm-5.2 12.8h-.1.1c0-.2.1-.3.1-.4.1-.1.1-.2.2-.4s.2-.4.3-.7c.2.2.3.5.5.7.1.1.2.3.3.4l.4.4c.7.6 1.5 1.1 2.3 1.5.1 0 .2.1.2.1v1.5c-.6-.2-1.2-.5-1.8-.8-.2-.1-.4-.2-.6-.4-.2-.1-.3-.2-.5-.4-.4-.4-.9-.9-1.4-1.5zm-11.3 6.8v.4c0 4.9 4 9 9 9h.8c4.9 0 9-4 9-9V38.6h1.5V59c0 5.9-4.8 10.8-10.8 10.8h-.2C39 69.8 34.1 65 34.1 59v-.1h1.5zm10.8-6.2l.9.9.4.4c.2.1.3.3.5.4.8.6 1.8 1.1 2.8 1.5.1.1.3.1.4.2v1.5c-.4-.1-.8-.3-1.2-.4-.4-.2-.8-.3-1.1-.5-.2-.1-.4-.2-.7-.4l-.6-.3c-.3-.2-.6-.5-.9-.7-.3-.2-.6-.5-.9-.8l-.4-.4-.1-.1c.1-.1.1-.2.2-.3.3-.4.5-.7.7-1z"/></svg><svg width="28" height="22" viewBox="-2 -2 28 22" x="124" y="94"><path fill="#fff" d="M23.8 13.8c-.5.6-1.6 1-1.6 1l-8.5 3v-2.2l6.3-2.2c.7-.2.8-.6.2-.8-.6-.2-1.6-.1-2.3.1l-4.2 1.4v-2.3l.2-.1s1.2-.4 2.9-.6c1.7-.2 3.8 0 5.4.6 1.8.7 2.1 1.5 1.6 2.1zM14.4 10V4.4c0-.7-.1-1.3-.8-1.4-.5-.2-.8.3-.8.9V18L9 16.8V0c1.7.3 4.1 1 5.4 1.4 3.3 1.1 4.4 2.5 4.4 5.6 0 3-1.9 4.2-4.4 3zM1.8 15.3c-1.9-.5-2.2-1.6-1.3-2.2.8-.6 2.2-1 2.2-1l5.6-1.9v2.2l-4 1.4c-.7.2-.8.6-.2.8.6.2 1.6.1 2.3-.1l1.9-.7v2c-.1 0-.3 0-.4.1-2 .2-4.1.1-6.1-.6z"/></svg><svg width="22" height="22" viewBox="-2 -2 22 22" x="152" y="94"><path fill="#fff" d="M13.1 11.3c1.6 2 2.3 3.6 2 4.3-.3.5-2.1 1.6-3.4 2-1.1.3-2.5.5-3.6.4-1.4-.1-2.8-.6-4-1.4-1-.7-1.2-.9-1.2-1.5 0-1.1 1.2-3 3.2-5.2 1.2-1.2 2.8-2.7 3-2.6.3.1 3 2.7 4 4zM6.2 5.4l.4-.4-.7-.7c-1.1-1-1.8-1.5-2.5-1.7-.6-.2-.6-.2-1 .3C1.3 4 .4 5.8.2 7.4 0 8.6 0 9 0 9.6c.2 1.8.6 3.1 1.5 4.4.3.5.4.6.3.4-.2-.4 0-1.4.3-2.3.7-1.9 2.5-4.7 4.1-6.7zm11.7 1.8c-.3-1.3-.8-2.5-1.5-3.5-.5-.6-1-1.2-1.2-1.2-.3 0-.9.2-1.3.5-.5.3-1 .7-1.8 1.4l-.6.5.5.7c1.6 2.1 3.4 5.1 3.9 6.7.2.7.4 1.5.3 1.9-.1.3-.1.3 0 .2.2-.3.7-1.1.9-1.6.3-.6.5-1.5.7-2.1.2-.9.2-2.6.1-3.5zm-13.1-6h.9c.6.1 1.8.5 2.6.9.3.3.7.5.7.5l.8-.4c1.3-.7 2.6-1 3.5-1h.4l-.2-.1c-.6-.4-1.8-.8-2.7-1C9.9 0 8.2 0 7.3.1c-.8.2-1.4.4-2.1.7-.9.4-.9.5-.4.4z"/></svg></svg>