<svg width="218" height="166" viewBox="0 0 218 166" xmlns="http://www.w3.org/2000/svg" xmlns:xlink="http://www.w3.org/1999/xlink"><svg width="54" height="41.5" viewBox="-2 -2 54 41.5" y="124"><path fill="#1C1B25" d="M8.7.1h3.8l8.7 37.4-1.9-.1-8.2-35.2H10L1.8 37.3H0L8.7.1zm-2.8 25h9.3L18 37.3h-1.8l-2.4-10.4-6.5-.1-2.4 10.4-1.9.1 2.9-12.2zM10.6 5L15 23.9H6.2C6.2 24 10.6 5 10.6 5zm2.1 17.1L10.5 13l-2.1 9.1h4.3zM15.6 0l8.9 35.5h1L34.4.2l1.9-.2-9.4 37.4h-3.7L13.9.2l1.7-.2zm3.2.4l6.2 25L31.4.3l1.8-.1L25 32.6 16.9.2l1.9.2zM37.5.1h3.8L50 37.5l-1.9-.1L40 2.2h-1.1l-8.2 35.1h-1.8L37.5.1zm-2.8 25H44l2.9 12.2h-1.8l-2.4-10.4-6.5-.1-2.4 10.3-1.9.1 2.8-12.1zM39.4 5l4.4 18.9-8.8.1 4.4-19zm2.1 17.1L39.4 13l-2.1 9.1h4.2z"/></svg><svg width="124" height="124" viewBox="-2 -2 124 124"><path fill="#FFF" d="M60 0L0 60l60 60 60-60L60 0zm0 117.4C40.9 98.2 21.7 79.1 2.6 60 21.7 40.8 40.9 21.7 60 2.6 79.1 21.7 98.3 40.8 117.4 60 98.3 79.1 79.1 98.2 60 117.4zm17.7-66.7v28c0 4.3-1.7 8.7-4.7 11.8-2.9 3.2-7.1 5.3-11.5 5.7-4.6.4-9.4-1.1-12.9-4.1-3.6-3-6-7.6-6.3-12.3-.1-1 0-2.1 0-3.1v-36c.1-3.7 1.4-7.3 3.7-10.2 2.2-2.8 5.3-5 8.7-6 4.7-1.5 10-.9 14.3 1.7 3.4 2 6.1 5.1 7.5 8.8.8 2 1.2 4.2 1.2 6.4h-1.8c0-4.1-1.6-8.1-4.5-11.1-1.7-1.8-3.9-3.1-6.2-3.9-2.3-.8-4.7-1-7.1-.7-3.5.4-6.9 2.1-9.3 4.6-2.7 2.8-4.4 6.5-4.5 10.4-.1.8 0 1.6 0 2.5V75c0 2.3-.1 4.7.4 7 .8 4 3.3 7.7 6.8 9.9 3.5 2.3 8 3.2 12.1 2.3 3.9-.8 7.4-3.2 9.6-6.4 1.9-2.6 2.9-5.9 2.9-9.1V50.8c.4-.1 1-.1 1.6-.1zm-4.6-9.3c0-4.1-2-8.2-5.4-10.6-2.1-1.5-4.5-2.4-7.1-2.5-2.9-.1-5.9.8-8.3 2.5-2.5 1.8-4.3 4.5-5 7.5-.3 1.3-.3 2.5-.3 3.8v36.5c0 2.3.6 4.6 1.8 6.6 1.3 2.1 3.1 3.9 5.4 5.1 3.9 2 8.8 1.9 12.5-.4 3.8-2.2 6.4-6.5 6.5-10.9V50.8H75v25.9c0 1.6.1 3.2-.3 4.8-.8 4-3.3 7.7-6.8 9.8-3.7 2.3-8.4 2.9-12.5 1.5-3.7-1.2-6.9-4-8.7-7.5-1-2.1-1.6-4.4-1.6-6.7V41.3c0-2.8.8-5.7 2.4-8 2.2-3.4 5.7-5.8 9.6-6.5 4.4-.9 9.1.3 12.5 3.3 3.3 2.8 5.3 7 5.2 11.3h-1.7zm-21.6-5.7c-1.1 1.6-1.7 3.6-1.7 5.6v36.2c0 .8 0 1.6.1 2.4.3 2.3 1.4 4.5 3.1 6.1 1.5 1.4 3.4 2.4 5.5 2.7 2.5.4 5.2-.2 7.3-1.6 2.3-1.5 3.9-3.9 4.4-6.6.2-1 .2-2.1.2-3.2V50.7h1.8v27.9c.1 3.7-1.8 7.4-4.8 9.7-2.1 1.6-4.7 2.5-7.3 2.4-4.1 0-8.1-2.2-10.3-5.8-1.2-1.9-1.8-4.1-1.8-6.3V41.9c0-1.2.1-2.5.4-3.7.6-2.4 2.1-4.7 4-6.3 2.3-1.9 5.4-2.9 8.5-2.7 2.4.2 4.7 1 6.6 2.5 2.9 2.2 4.7 5.9 4.7 9.6h-1.8c0-2-.6-4-1.7-5.6-1.4-2.1-3.5-3.6-5.9-4.3-2-.5-4.2-.5-6.1.2-2.2.8-4 2.3-5.2 4.1zm-10.1 42c-4.1 0-8.2-1.5-11.4-4.2-3.5-2.9-5.7-7.2-6.2-11.7-.3-3.1.2-6.3 1.5-9.1 1.5-3.4 4.2-6.3 7.5-8.1 2.6-1.5 5.6-2.2 8.5-2.2v1.8c-3.5 0-7 1.2-9.8 3.4-2.9 2.3-4.9 5.5-5.6 9.1-.9 4.3 0 9.1 2.7 12.7 2.9 4 7.8 6.6 12.7 6.5.1.6.1 1.2.1 1.8zm55-17.5c0 4.6-1.9 9.1-5.2 12.3-3.3 3.3-7.9 5.2-12.5 5.2v-1.8c4.2 0 8.3-1.7 11.3-4.7 1.7-1.7 3-3.8 3.8-6.1 1.5-4.5.9-9.6-1.7-13.5-2.8-4.5-7.9-7.4-13.2-7.3H50.8v-1.8h26.8c1.1 0 2.2 0 3.3.1 4.4.5 8.5 2.8 11.4 6.1 2.6 3.1 4.2 7.3 4.1 11.5zM41.4 47c-2.7 0-5.5.9-7.7 2.5-2.5 1.8-4.3 4.5-5 7.4-.7 3-.4 6.2 1 8.9 1.7 3.5 5.1 6.1 8.8 6.9.9.2 1.8.3 2.8.3v1.8c-4.2.1-8.3-1.9-11.1-5-3.2-3.5-4.4-8.5-3.4-13.1.8-3.5 2.9-6.7 5.8-8.8 2.5-1.8 5.6-2.9 8.7-2.8.1.7.1 1.3.1 1.9zm37.3 27.9v-1.8c2.2 0 4.4-.6 6.4-1.7 3.3-1.8 5.8-5.2 6.5-9 .4-2.4.2-5-.7-7.2-1.3-3.4-4.2-6.2-7.6-7.5-1.4-.5-2.9-.8-4.4-.8h-28v-1.8h26.3c1.2 0 2.5 0 3.7.1 4.3.6 8.2 3.1 10.5 6.7 2.5 3.8 3 8.7 1.5 13-1.2 3.5-3.9 6.6-7.2 8.3-2.3 1.1-4.6 1.7-7 1.7zM41.4 48v1.8c-1.4.1-2.8.3-4.1.9-2.1.9-3.9 2.6-5 4.7-1.2 2.2-1.4 4.9-.8 7.3.5 1.9 1.5 3.6 2.9 4.9 1.9 1.8 4.4 2.8 7 2.8v1.8c-2.1-.1-4.3-.6-6.1-1.7-2.2-1.3-3.9-3.3-4.9-5.6-1-2.2-1.2-4.7-.8-7 .5-2.8 2.1-5.4 4.3-7.2 2.1-1.8 4.8-2.8 7.5-2.7zm43.1 3.5c-1.7-1.2-3.9-1.8-6-1.8H50.7v-1.8h24.7c1.5 0 3.1 0 4.6.1 2.6.3 5.2 1.5 7.1 3.3C90 54 91.3 58.2 90.6 62c-.4 2.3-1.5 4.5-3.1 6.2-1.6 1.8-3.8 3-6.1 3.5-.9.2-1.8.3-2.7.3v-1.8c2 0 4-.6 5.6-1.7 1.6-1.1 3-2.6 3.8-4.5 1-2.2 1.1-4.7.4-7-.6-2.1-2.1-4.1-4-5.5zM50.8 72.1v-1.8h18.6v1.8H50.8zm0 1h18.6v1.8c-2.2.1-4.3 0-6.5 0H50.8v-1.8zm18.5 2.8v1.8H50.7v-1.8h11.2c2.5 0 5-.1 7.4 0z"/></svg><svg width="94" height="94" viewBox="-2 -2 94 94" x="124"><path fill="#fff" d="M45 0L0 45l45 45 45-45L45 0zm0 88.1C30.7 73.6 16.3 59.3 1.9 45c14.3-14.4 28.7-28.7 43-43C59.2 16.3 73.6 30.6 88 45 73.7 59.3 59.3 73.6 45 88.1zM58.3 38v21c0 3.2-1.3 6.5-3.5 8.9-2.2 2.4-5.3 4-8.6 4.3-3.4.3-7.1-.8-9.7-3.1-2.7-2.2-4.5-5.7-4.7-9.2-.1-.8 0-1.6 0-2.3v-27c.1-2.8 1.1-5.5 2.8-7.6 1.7-2.1 4-3.8 6.5-4.5 3.5-1.1 7.5-.7 10.7 1.3 2.6 1.5 4.6 3.8 5.6 6.6.6 1.5.9 3.1.9 4.8h-1.4c0-3.1-1.2-6.1-3.4-8.3-1.3-1.4-2.9-2.3-4.6-2.9-1.7-.6-3.5-.8-5.3-.5-2.6.3-5.2 1.6-7 3.5-2 2.1-3.3 4.9-3.4 7.8-.1.6 0 1.2 0 1.9v23.8c0 1.7-.1 3.5.3 5.2.6 3 2.5 5.8 5.1 7.4 2.6 1.7 6 2.4 9.1 1.7 2.9-.6 5.6-2.4 7.2-4.8 1.4-2 2.2-4.4 2.2-6.8V38.1c.3-.1.7-.1 1.2-.1zm-3.5-6.9c0-3.1-1.5-6.1-4-7.9-1.6-1.1-3.4-1.8-5.3-1.9-2.2-.1-4.4.6-6.2 1.9-1.9 1.4-3.2 3.4-3.8 5.6-.2 1-.2 1.9-.2 2.8V59c0 1.7.4 3.4 1.3 4.9 1 1.6 2.3 2.9 4.1 3.8 2.9 1.5 6.6 1.4 9.4-.3 2.9-1.7 4.8-4.9 4.9-8.2V38.1h1.4v19.4c0 1.2.1 2.4-.2 3.6-.6 3-2.5 5.8-5.1 7.4-2.8 1.7-6.3 2.2-9.4 1.1-2.8-.9-5.2-3-6.5-5.6-.8-1.6-1.2-3.3-1.2-5V31c0-2.1.6-4.3 1.8-6 1.7-2.5 4.3-4.3 7.2-4.9 3.3-.7 6.8.2 9.4 2.5 2.5 2.1 4 5.2 3.9 8.5-.2-.1-1.5-.1-1.5 0zm-16.2-4.3c-.8 1.2-1.3 2.7-1.3 4.2v27.1c0 .6 0 1.2.1 1.8.2 1.7 1 3.4 2.3 4.6 1.1 1.1 2.6 1.8 4.1 2 1.9.3 3.9-.1 5.5-1.2 1.7-1.1 2.9-2.9 3.3-4.9.1-.8.1-1.6.1-2.4V38h1.4v20.9c.1 2.8-1.4 5.6-3.6 7.3-1.5 1.2-3.5 1.9-5.4 1.8-3.1 0-6.1-1.6-7.7-4.3-.9-1.4-1.4-3.1-1.4-4.7V31.4c0-.9.1-1.9.3-2.8.4-1.8 1.6-3.5 3-4.7 1.7-1.4 4-2.2 6.4-2 1.8.1 3.5.8 5 1.9 2.2 1.6 3.5 4.4 3.5 7.2h-1.4c0-1.5-.4-3-1.3-4.2-1-1.6-2.6-2.7-4.4-3.2-1.5-.4-3.2-.4-4.6.2-1.6.5-3 1.6-3.9 3zm-7.5 31.5c-3.1 0-6.1-1.1-8.5-3.1-2.6-2.2-4.3-5.4-4.6-8.8-.4-2.4 0-4.8 1-6.9 1.1-2.5 3.2-4.7 5.6-6.1 1.9-1.1 4.2-1.7 6.4-1.7V33c-2.6 0-5.2.9-7.3 2.6-2.2 1.7-3.7 4.1-4.2 6.8-.7 3.2 0 6.8 2 9.5 2.2 3 5.9 4.9 9.5 4.9.1.6.1 1 .1 1.5zm41.2-13.1c0 3.5-1.4 6.8-3.9 9.2-2.5 2.5-5.9 3.9-9.4 3.9V57c3.2 0 6.2-1.3 8.5-3.5 1.3-1.3 2.2-2.8 2.8-4.6 1.1-3.4.7-7.2-1.3-10.1-2.1-3.4-5.9-5.6-9.9-5.5h-21v-1.4h20.1c.8 0 1.7 0 2.5.1 3.3.4 6.4 2.1 8.6 4.6 1.9 2.3 3.1 5.4 3 8.6zm-41.2-10c-2 0-4.1.7-5.8 1.9-1.9 1.3-3.2 3.4-3.8 5.6-.5 2.2-.3 4.6.8 6.7 1.3 2.6 3.8 4.6 6.6 5.2.7.2 1.3.2 2.1.2v1.3c-3.1.1-6.2-1.4-8.3-3.8-2.4-2.6-3.3-6.4-2.6-9.8.6-2.6 2.2-5 4.4-6.6 1.9-1.3 4.2-2.2 6.5-2.1 0 .6 0 1 .1 1.4zm27.9 21v-1.4c1.6 0 3.3-.4 4.8-1.3 2.5-1.4 4.4-3.9 4.9-6.8.3-1.8.2-3.8-.5-5.4-1-2.6-3.2-4.7-5.7-5.6-1-.4-2.2-.6-3.3-.6h-21v-1.4h19.7c.9 0 1.9 0 2.8.1 3.2.4 6.2 2.3 7.9 5 1.9 2.8 2.2 6.5 1.1 9.8-.9 2.6-2.9 4.9-5.4 6.2-1.8.9-3.5 1.4-5.3 1.4zM31.1 36v1.3c-1.1.1-2.1.3-3.1.7-1.6.7-2.9 1.9-3.8 3.5-.9 1.6-1 3.7-.6 5.5.4 1.4 1.1 2.7 2.2 3.7 1.4 1.4 3.3 2.1 5.2 2.1v1.3c-1.6-.1-3.2-.4-4.6-1.3-1.7-1-2.9-2.5-3.7-4.2-.8-1.7-.9-3.5-.6-5.2.4-2.1 1.6-4 3.2-5.4 1.7-1.3 3.7-2.1 5.8-2zm32.3 2.6c-1.3-.9-2.9-1.3-4.5-1.3H38V36h18.5c1.1 0 2.3 0 3.4.1 1.9.2 3.9 1.1 5.3 2.5 2.2 2 3.2 5.2 2.6 8-.3 1.7-1.1 3.4-2.3 4.6-1.2 1.4-2.9 2.2-4.6 2.6-.7.1-1.4.2-2 .2v-1.4c1.5 0 3-.5 4.2-1.3s2.3-1.9 2.9-3.4c.8-1.7.8-3.5.3-5.2-.4-1.5-1.5-3-2.9-4.1zM38.1 54.1v-1.3h14v1.3h-14zm0 .7h14v1.4c-1.7.1-3.2 0-4.9 0h-9.1v-1.4zM52 56.9v1.3H38v-1.3h14z"/></svg><svg width="28" height="22" viewBox="-2 -2 28 22" x="124" y="94"><path fill="#FFF" d="M23.8 13.8c-.5.6-1.6 1-1.6 1l-8.5 3v-2.2l6.3-2.2c.7-.2.8-.6.2-.8-.6-.2-1.6-.1-2.3.1l-4.2 1.4v-2.3l.2-.1s1.2-.4 2.9-.6c1.7-.2 3.8 0 5.4.6 1.8.7 2.1 1.5 1.6 2.1zM14.4 10V4.4c0-.7-.1-1.3-.8-1.4-.5-.2-.8.3-.8.9V18L9 16.8V0c1.7.3 4.1 1 5.4 1.4 3.3 1.1 4.4 2.5 4.4 5.6 0 3-1.9 4.2-4.4 3zM1.8 15.3c-1.9-.5-2.2-1.6-1.3-2.2.8-.6 2.2-1 2.2-1l5.6-1.9v2.2l-4 1.4c-.7.2-.8.6-.2.8.6.2 1.6.1 2.3-.1l1.9-.7v2c-.1 0-.3 0-.4.1-2 .2-4.1.1-6.1-.6z"/></svg><svg width="22" height="22" viewBox="-2 -2 22 22" x="152" y="94"><path fill="#FFF" d="M13.1 11.3c1.6 2 2.3 3.6 2 4.3-.3.5-2.1 1.6-3.4 2-1.1.3-2.5.5-3.6.4-1.4-.1-2.8-.6-4-1.4-1-.7-1.2-.9-1.2-1.5 0-1.1 1.2-3 3.2-5.2 1.2-1.2 2.8-2.7 3-2.6.3.1 3 2.7 4 4zM6.2 5.4l.4-.4-.7-.7c-1.1-1-1.8-1.5-2.5-1.7-.6-.2-.6-.2-1 .3C1.3 4 .4 5.8.2 7.4 0 8.6 0 9 0 9.6c.2 1.8.6 3.1 1.5 4.4.3.5.4.6.3.4-.2-.4 0-1.4.3-2.3.7-1.9 2.5-4.7 4.1-6.7zm11.7 1.8c-.3-1.3-.8-2.5-1.5-3.5-.5-.6-1-1.2-1.2-1.2-.3 0-.9.2-1.3.5-.5.3-1 .7-1.8 1.4l-.6.5.5.7c1.6 2.1 3.4 5.1 3.9 6.7.2.7.4 1.5.3 1.9-.1.3-.1.3 0 .2.2-.3.7-1.1.9-1.6.3-.6.5-1.5.7-2.1.2-.9.2-2.6.1-3.5zm-13.1-6h.9c.6.1 1.8.5 2.6.9.3.3.7.5.7.5l.8-.4c1.3-.7 2.6-1 3.5-1h.4l-.2-.1c-.6-.4-1.8-.8-2.7-1C9.9 0 8.2 0 7.3.1c-.8.2-1.4.4-2.1.7-.9.4-.9.5-.4.4z"/></svg></svg>