<svg xmlns="http://www.w3.org/2000/svg" width="76" height="76" viewBox="0 0 76 76"><path fill="#FFF" d="M38 10L10 38l28 28 28-28-28-28zm0 54.8c-8.9-9-17.9-17.9-26.8-26.8 8.9-9 17.9-17.9 26.8-26.8C46.9 20.1 55.9 29 64.8 38 55.9 46.9 46.9 55.8 38 64.8zm8.3-31.1v13.1c0 2-.8 4.1-2.2 5.5-1.4 1.5-3.3 2.5-5.4 2.7-2.1.2-4.4-.5-6-1.9-1.7-1.4-2.8-3.5-2.9-5.7V29.2c0-1.7.7-3.4 1.7-4.8 1-1.3 2.5-2.3 4.1-2.8 2.2-.7 4.7-.4 6.7.8 1.6.9 2.8 2.4 3.5 4.1.4.9.6 2 .6 3h-.8c0-1.9-.7-3.8-2.1-5.2-.8-.8-1.8-1.4-2.9-1.8-1.1-.4-2.2-.5-3.3-.3-1.6.2-3.2 1-4.3 2.1-1.3 1.3-2.1 3-2.1 4.9v16c0 1.1 0 2.2.2 3.3.4 1.9 1.5 3.6 3.2 4.6 1.6 1.1 3.7 1.5 5.6 1.1 1.8-.4 3.5-1.5 4.5-3 .9-1.2 1.4-2.8 1.4-4.2V34c-.1-.3.2-.3.5-.3zm-2.2-4.4c0-1.9-.9-3.8-2.5-4.9-1-.7-2.1-1.1-3.3-1.2-1.4 0-2.8.4-3.9 1.2-1.2.8-2 2.1-2.3 3.5-.1.6-.1 1.2-.1 1.8v17c0 1.1.3 2.1.8 3.1.6 1 1.4 1.8 2.5 2.4 1.8.9 4.1.9 5.8-.2 1.8-1 3-3 3-5.1V33.7h.8v12.1c0 .7 0 1.5-.1 2.2-.4 1.9-1.5 3.6-3.2 4.6-1.7 1.1-3.9 1.4-5.8.7-1.7-.6-3.2-1.9-4.1-3.5-.5-1-.7-2.1-.7-3.1V29.3c0-1.3.4-2.7 1.1-3.7 1-1.6 2.7-2.7 4.5-3 2.1-.4 4.2.1 5.8 1.5 1.5 1.3 2.5 3.3 2.4 5.3-.1-.1-.4-.1-.7-.1zM34 26.7c-.5.7-.8 1.7-.8 2.6v18c.1 1.1.7 2.1 1.4 2.8.7.7 1.6 1.1 2.6 1.3 1.2.2 2.4-.1 3.4-.7 1.1-.7 1.8-1.8 2.1-3.1.1-.5.1-1 .1-1.5V33.7h.8v13c0 1.7-.8 3.5-2.2 4.5-1 .7-2.2 1.2-3.4 1.1-1.9 0-3.8-1-4.8-2.7-.6-.9-.8-1.9-.8-2.9V29.6c0-.6 0-1.2.2-1.7.3-1.1 1-2.2 1.9-2.9 1.1-.9 2.5-1.4 4-1.3 1.1.1 2.2.5 3.1 1.2 1.4 1 2.2 2.8 2.2 4.5H43c0-.9-.3-1.9-.8-2.6-.7-1-1.6-1.7-2.8-2-.9-.2-2-.2-2.8.1-1.2.2-2 .9-2.6 1.8zm-4.7 19.6c-1.9 0-3.8-.7-5.3-2-1.6-1.4-2.7-3.4-2.9-5.5-.1-1.4.1-2.9.7-4.2.7-1.6 2-2.9 3.5-3.8 1.2-.7 2.6-1 4-1v.8c-1.6 0-3.3.6-4.6 1.6-1.4 1.1-2.3 2.6-2.6 4.2-.4 2 0 4.2 1.3 5.9 1.4 1.9 3.6 3.1 5.9 3v1zM55 38.1c0 2.1-.9 4.2-2.4 5.7s-3.7 2.4-5.8 2.4v-.8c2 0 3.9-.8 5.3-2.2.8-.8 1.4-1.8 1.8-2.8.7-2.1.4-4.5-.8-6.3-1.3-2.1-3.7-3.5-6.2-3.4H33.8v-.8h14c2.1.2 4 1.3 5.3 2.8 1.2 1.5 1.9 3.4 1.9 5.4zm-25.7-6.2c-1.3 0-2.6.4-3.6 1.2-1.2.8-2 2.1-2.3 3.5-.3 1.4-.2 2.9.5 4.2.8 1.6 2.4 2.8 4.1 3.2.4.1.8.1 1.3.1v.8c-2 0-3.9-.9-5.2-2.3-1.5-1.6-2.1-4-1.6-6.1.4-1.6 1.4-3.1 2.7-4.1 1.2-.8 2.6-1.4 4.1-1.3v.8zM46.7 45v-.8c1 0 2.1-.3 3-.8 1.5-.8 2.7-2.4 3-4.2.2-1.1.1-2.3-.3-3.4-.6-1.6-2-2.9-3.5-3.5-.7-.2-1.4-.4-2.1-.4H33.7v-.8h14c2 .3 3.8 1.4 4.9 3.1 1.2 1.8 1.4 4.1.7 6.1-.6 1.6-1.8 3.1-3.4 3.9-1 .5-2.1.8-3.2.8zM29.3 32.4v.8c-.7 0-1.3.1-1.9.4-1 .4-1.8 1.2-2.3 2.2-.6 1-.7 2.3-.4 3.4.2.9.7 1.7 1.4 2.3.9.8 2.1 1.3 3.3 1.3v.8c-1 0-2-.3-2.8-.8-1-.6-1.8-1.5-2.3-2.6-.5-1-.6-2.2-.4-3.3.2-1.3 1-2.5 2-3.4.9-.7 2.2-1.1 3.4-1.1zM49.4 34c-.8-.6-1.8-.8-2.8-.8h-13v-.8h13.6c1.2.1 2.4.7 3.3 1.5 1.4 1.3 2 3.2 1.6 5-.2 1.1-.7 2.1-1.4 2.9-.7.8-1.8 1.4-2.8 1.6-.4.1-.8.1-1.3.1v-.8c.9 0 1.9-.3 2.6-.8s1.4-1.2 1.8-2.1c.5-1 .5-2.2.2-3.3-.2-.9-.9-1.8-1.8-2.5zm-15.7 9.6v-.8h8.7v.8h-8.7zm0 .5h8.7v.8h-8.6c-.1-.2-.1-.5-.1-.8zm8.6 1.3v.8h-8.7v-.8h8.7z"/></svg>